HIERARCHY
ROOT Hips
{
	OFFSET	0.00	0.00	0.00
	CHANNELS 6 Xposition Yposition Zposition Zrotation Xrotation Yrotation
	JOINT Chest
	{
		OFFSET	 0.000000	 4.570000	 0.000000
		CHANNELS 3 Zrotation Xrotation Yrotation
		JOINT Neck
		{
			OFFSET	 0.000000	 17.620001	 0.000000
			CHANNELS 3 Zrotation Xrotation Yrotation
			JOINT Head
			{
				OFFSET	 0.000000	 5.190000	 0.000000
				CHANNELS 3 Zrotation Xrotation Yrotation
				End Site 
				{
					OFFSET	 0.000000	 4.140008	 0.000000
				}
			}
		}
		JOINT LeftCollar
		{
			OFFSET	 1.060000	 15.330000	 01.760000
			CHANNELS 3 Zrotation Xrotation Yrotation
			JOINT LeftShoulder
			{
				OFFSET	 5.00000	 0.000000	 0.000000
				CHANNELS 3 Zrotation Xrotation Yrotation
				JOINT LeftElbow
				{
					OFFSET	 0.000000	-11.90000	 0.000000
					CHANNELS 3 Zrotation Xrotation Yrotation
					JOINT LeftWrist
					{
						OFFSET	 0.000000	-9.520000	 0.000000
						CHANNELS 3 Zrotation Xrotation Yrotation
						End Site 
						{
							OFFSET	 0.000000	-7.0	 0.000000
						}
					}
				}
			}
		}
		JOINT RightCollar
		{
			OFFSET	-1.060000	 15.330000	 01.760000
			CHANNELS 3 Zrotation Xrotation Yrotation
			JOINT RightShoulder
			{
				OFFSET	-5.000000	 0.000000	 0.000000
				CHANNELS 3 Zrotation Xrotation Yrotation
				JOINT RightElbow
				{
					OFFSET	 0.000000	-11.900000	 0.000000
					CHANNELS 3 Zrotation Xrotation Yrotation
					JOINT RightWrist
					{
						OFFSET	 0.000000	-9.520000	 0.000000
						CHANNELS 3 Zrotation Xrotation Yrotation
						End Site 
						{
							OFFSET	 0.000000	-7.0	 0.000000
						}
					}
				}
			}
		}
	}
	JOINT LeftHip
	{
		OFFSET	 3.430000	 0.000000	 0.000000
		CHANNELS 3 Zrotation Xrotation Yrotation
		JOINT LeftKnee
		{
			OFFSET	 0.000000	-19.0	 0.000000
			CHANNELS 3 Zrotation Xrotation Yrotation
			JOINT LeftAnkle
			{
				OFFSET	 0.000000	-15.00000	 0.000000
				CHANNELS 3 Zrotation Xrotation Yrotation
				End Site 
				{
					OFFSET	 0.000000	-3.0	 0.000000
				}
			}
		}
	}
	JOINT RightHip
	{
		OFFSET	-3.430000	 0.000000	 0.000000
		CHANNELS 3 Zrotation Xrotation Yrotation
		JOINT RightKnee
		{
			OFFSET	 0.000000	-19.0	 0.000000
			CHANNELS 3 Zrotation Xrotation Yrotation
			JOINT RightAnkle
			{
				OFFSET	 0.000000	-15.00000	 0.000000
				CHANNELS 3 Zrotation Xrotation Yrotation
				End Site 
				{
					OFFSET	 0.000000	-3.0	 0.000000
				}
			}
		}
	}
}
MOTION
Frames: 6
Frame Time: 0.033333333
6.987048	22.392832	84.635518	-355.362274	286.383649	-1.328078	8.432714	-23.929530	11.483131	-5.867351	-48.915922	-5.505064	-4.018838	-14.396599	1.196676	25.231099	13.775659	57.565816	66.323252	-26.352597	30.040472	-298.317356	-356.844890	115.441067	106.927155	-8.614111	19.667391	-213.748701	-194.991636	127.425098	-82.594648	-27.042072	37.064673	-153.319970	125.811685	-1.951618	268.036860	-307.640864	-8.061708	34.650949	24.271883	13.172144	-16.474119	121.145996	17.198744	342.843849	-342.288118	-28.904496	331.472596	-346.083927	-0.314990	-354.613330	-244.591909	-1.186894	55.399157	11.270252	8.362244	
6.625720	22.319466	84.551152	354.900034	286.619564	-12.301543	11.285771	-23.084596	13.180272	-5.597237	-50.379471	-5.339408	-4.544993	-14.182742	0.408376	24.898848	13.795698	57.537983	66.666633	-25.927438	30.146822	-298.835931	-356.150232	116.424847	106.726265	-8.338693	19.820191	-213.114778	-194.859172	126.901769	-81.481054	-27.358670	37.390056	-153.172411	124.908693	-2.891828	267.971618	-307.726651	-7.608183	39.297875	25.277175	12.140364	-16.018755	120.368065	16.808380	344.482603	-339.965225	-33.021331	336.314353	-347.350599	-0.787164	-352.672491	-243.878345	-3.069148	57.230966	9.723723	6.882575	
6.474494	22.281064	84.485971	352.744236	285.610199	-14.969894	11.436309	-21.207206	13.021365	-4.912383	-52.118645	-4.791655	-4.139899	-13.319487	1.073494	24.553064	13.672163	57.937583	66.393528	-25.045424	30.036955	-299.136213	-356.224791	117.576717	106.800243	-8.344045	19.789156	-212.351081	-194.840307	126.720701	-80.725894	-27.432797	37.661242	-152.672154	124.552540	-4.332402	268.538715	-307.659770	-7.989744	40.651249	26.549042	10.697011	-15.960297	119.700633	16.799516	346.554090	-339.190627	-35.363478	337.499909	-346.569499	-0.413196	-352.159489	-243.977765	-3.589990	57.366013	8.583431	6.462921	
6.473873	22.016088	84.521040	355.848365	285.761091	-11.808330	10.357641	-20.422998	12.276442	-4.004474	-54.176649	-4.023927	-3.263032	-13.533361	1.458822	24.232160	13.517601	58.424412	65.701582	-23.908744	29.790119	-299.409639	-356.381339	118.837311	106.879685	-8.304426	19.916233	-211.688225	-194.843162	126.624942	-80.524376	-26.850880	37.925430	-151.756622	125.277059	-5.986492	270.191758	-307.388174	-9.500449	39.939441	25.454779	11.939759	-17.751596	121.014829	18.476358	347.674514	-340.041259	-35.485106	337.052997	-347.423928	-0.787924	-351.498983	-242.941407	-4.157675	58.462504	9.096896	7.050615	
6.584934	21.599963	84.644585	-358.567873	286.655327	-5.102420	8.201003	-20.234746	11.005992	-3.863952	-56.199061	-3.960738	-2.466685	-14.956434	1.297267	23.929492	13.493802	58.522651	64.725685	-22.880966	29.457386	-299.805900	-356.211130	119.780573	107.231932	-8.187955	20.830741	-211.412285	-194.745394	126.273583	-80.221819	-25.403676	38.486991	-151.635537	126.668696	-6.921407	272.641883	-307.019508	-11.828512	38.103292	22.537564	14.945399	-21.114150	124.108755	21.491118	347.240879	-341.428060	-33.799197	335.045877	-348.378543	-1.323035	-351.950076	-241.378496	-3.567610	60.599609	12.486557	8.663596	
6.628695	21.152555	84.844848	-355.763999	287.993088	-1.600382	6.833783	-20.152012	10.219668	-4.012042	-57.928212	-4.160432	-1.361722	-16.954237	1.696408	24.283945	13.521735	58.407350	63.257003	-21.352721	28.969512	-299.901659	-356.530810	121.913382	106.976933	-8.278458	20.223329	-211.518576	-194.686450	126.105069	-79.041337	-24.219468	39.283852	-151.691025	127.405168	-7.295574	276.268795	-306.585900	-15.624091	37.925201	19.574874	17.848298	-22.817563	127.102768	22.770957	346.349594	-341.815305	-32.583939	334.204999	-350.438528	-2.377251	-351.789184	-239.376896	-3.536961	60.847654	14.554993	9.401518	
